<?xml version="1.0" encoding="UTF-8"?>
<svg version="1.1" xmlns="http://www.w3.org/2000/svg" width="4501" height="2251">
<path d="M0 0 C10.7801474 8.46552702 20.24013309 18.54767693 29.91048127 28.22371298 C31.67520564 29.98585073 33.44014354 31.74777465 35.20527565 33.50950396 C39.5340356 37.83106717 43.86047981 42.15493723 48.1859218 46.47982105 C53.37114361 51.66412507 58.55924348 56.84554541 63.74737993 62.02693236 C76.27935972 74.54289641 88.80630205 87.06389728 101.33267184 99.58547552 C107.26061053 105.5110749 113.18918077 111.43604225 119.1178262 117.3609345 C139.42205005 137.65232988 159.72522065 157.94477825 180.02475721 178.24086291 C181.29754285 179.51342692 182.57032857 180.78599085 183.84311436 182.05855471 C185.11890593 183.33412564 186.39469742 184.60969665 187.67048883 185.88526773 C190.22979848 188.44413483 192.7891104 191.00299964 195.34842378 193.56186301 C195.98297743 194.19630727 196.61753109 194.83075153 197.27131364 195.48442138 C217.86050475 216.06997945 238.45583704 236.64937876 259.05485469 257.22510355 C280.84744406 278.99309548 302.63458889 300.76652191 324.41548073 322.54621851 C326.80629924 324.93686558 329.19713974 327.32749065 331.5879963 329.71809965 C332.17666459 330.30671218 332.76533289 330.8953247 333.37183961 331.50177396 C342.84103326 340.96981746 352.31515198 350.43291781 361.79104227 359.89425857 C371.31281914 369.40166785 380.82901702 378.91463294 390.33959188 388.43324815 C395.98786126 394.08597162 401.64024519 399.73450572 407.29865808 405.37707584 C411.52506734 409.59257828 415.74357848 413.81589348 419.95909861 418.04228825 C421.66423276 419.74938391 423.37190333 421.45395064 425.08236399 423.15570926 C442.8829103 440.87141851 456.61144538 458.6431632 456.8569687 484.9356423 C456.8569687 496.88233034 454.07400752 507.47042645 448.9819687 518.2481423 C448.70868745 518.84892599 448.4354062 519.44970968 448.1538437 520.06869894 C441.21029972 533.71957457 426.68468352 545.00918194 415.99141389 555.70509726 C414.2180313 557.4825018 412.44485767 559.26011485 410.67187369 561.03791702 C406.33011183 565.39032432 401.98605887 569.74043356 397.64097524 574.08952435 C392.43073685 579.30480445 387.22334726 584.52292571 382.01594447 589.74103685 C368.84193492 602.94178332 355.66211938 616.13672739 342.48147443 629.33084801 C338.90977846 632.90621973 335.33824583 636.48175458 331.76674944 640.05732566 C309.57093304 662.27839645 287.37350567 684.49785668 265.17127973 706.71252352 C260.03678184 711.84994235 254.9023073 716.98738452 249.76785737 722.12485129 C249.13001739 722.76306218 248.49217741 723.40127307 247.83500894 724.05882368 C227.14253936 744.76345595 206.45949161 765.47746761 185.78178614 786.19684405 C164.50040168 807.52103752 143.21092751 828.83711887 121.91074329 850.14253467 C118.90131918 853.15269917 115.89198022 856.16294879 112.8826893 859.17324644 C112.29049002 859.76563634 111.69829074 860.35802623 111.08814602 860.96836734 C101.57176507 870.48825699 92.06379341 880.01650252 82.55888613 889.54784625 C73.00379817 899.12910895 63.43949579 908.70109569 53.86583259 918.2637985 C48.18406522 923.93960135 42.50930225 929.6221994 36.84451316 935.31494877 C32.60692933 939.57189167 28.35629542 943.81555327 24.10054717 948.05434559 C22.38630867 949.76578592 20.67625246 951.48142835 18.97094139 953.20176431 C1.57212997 970.74440741 -15.18188054 983.15030112 -40.8305313 983.3106423 C-75.57545527 983.3340676 -95.38232715 960.39656072 -118.31246179 937.50865752 C-120.05866346 935.76613186 -121.80614784 934.02490263 -123.55404395 932.28407675 C-129.65958426 926.20286929 -135.75953014 920.11610924 -141.85470122 914.02450949 C-147.52925067 908.35362051 -153.21689399 902.69609165 -158.91038716 897.04422814 C-163.816267 892.172963 -168.71255859 887.29219873 -173.60151124 882.40394551 C-176.51459676 879.49165341 -179.43153626 876.58349023 -182.3584072 873.68504721 C-185.09871113 870.97078417 -187.82695328 868.24496585 -190.5461933 865.50960547 C-191.54687247 864.5071028 -192.55186774 863.50888783 -193.56135863 862.51525885 C-194.93431734 861.16257724 -196.29058904 859.79301949 -197.64582366 858.42258078 C-198.41024244 857.66017332 -199.17466122 856.89776587 -199.96224421 856.11225516 C-201.4555313 853.9981423 -201.4555313 853.9981423 -201.20249781 852.04293354 C-199.94748787 848.60739354 -197.20397035 846.34278502 -194.64776057 843.82122809 C-194.0320387 843.20204469 -193.41631684 842.58286129 -192.78193673 841.94491476 C-190.70051457 839.85550188 -188.60849274 837.77703059 -186.51642913 835.69827658 C-185.01349737 834.19403756 -183.51122463 832.68913986 -182.00955796 831.18363792 C-177.86837794 827.03572556 -173.71786057 822.89726606 -169.56581742 818.76023155 C-165.09480785 814.30213852 -160.63243125 809.8354194 -156.16901702 805.36972433 C-148.43040418 797.62953598 -140.68635829 789.89482397 -132.93848532 782.16390616 C-124.81101337 774.0541746 -116.68664152 765.94135803 -108.56640357 757.82438284 C-108.06184208 757.32002757 -107.55728059 756.8156723 -107.03742936 756.29603354 C-104.47511793 753.73473708 -101.9128619 751.17338521 -99.35062719 748.612012 C-81.19391678 730.46160577 -63.03025817 712.31816745 -44.86251372 694.17880636 C-27.21088355 676.55472146 -9.56240132 658.927494 8.08182222 641.29599386 C8.62552704 640.75268362 9.16923187 640.20937337 9.7294126 639.64959918 C15.18942885 634.19353842 20.6493811 628.73741362 26.10928645 623.2812419 C37.23212064 612.16601671 48.35538202 601.05121909 59.47890168 589.9366799 C60.2460927 589.17010669 60.2460927 589.17010669 61.02878253 588.38804715 C95.19352365 554.25091621 129.36825331 520.12378542 163.5444687 485.9981423 C161.89860216 481.7811958 158.78038477 478.95927551 155.62926751 475.83684546 C155.01408018 475.21935043 154.39889284 474.60185541 153.76506346 473.96564841 C151.68913119 471.88439526 149.6061037 469.81039025 147.52307588 467.73624045 C146.02361981 466.23591274 144.52460311 464.73514583 143.02598995 463.23397619 C138.89622989 459.0997304 134.76023638 454.97176962 130.62323219 450.84477454 C126.1669933 446.39715022 121.71651262 441.94377074 117.26533967 437.49107748 C109.54912299 429.77381069 101.82928081 422.0601887 94.10688859 414.34910208 C86.00651052 406.26055264 77.90819905 398.16994333 69.81264573 390.07656485 C69.30953933 389.57359593 68.80643293 389.070627 68.28808088 388.5524166 C65.73313313 385.9981455 63.17822231 383.44383746 60.62332572 380.88951519 C42.52063382 362.79102561 24.41330803 344.69717871 6.30325776 326.60605246 C-11.29186187 309.02929757 -28.88488256 291.45044613 -46.47506255 273.86874777 C-47.01714179 273.32693158 -47.55922104 272.78511539 -48.11772692 272.22688052 C-53.56144073 266.78580373 -59.00511186 261.34468423 -64.44875172 255.90353344 C-75.53835988 244.8189979 -86.62825291 233.73474738 -97.71831816 222.65066916 C-98.22823606 222.14102584 -98.73815396 221.63138252 -99.26352392 221.10629546 C-133.32275529 187.06546958 -167.38864755 153.03130976 -201.4555313 118.9981423 C-199.77023794 115.42045448 -197.80360699 113.09029526 -194.99912566 110.27431113 C-194.3160421 109.58443089 -194.3160421 109.58443089 -193.61915886 108.88061368 C-192.09417216 107.34298201 -190.56214115 105.81257247 -189.02999419 104.28207785 C-187.93385963 103.17995773 -186.83813614 102.07742864 -185.74279326 100.9745217 C-182.76575583 97.97981067 -179.78225157 94.99162379 -176.79700321 92.00510007 C-174.9293892 90.13606361 -173.06320701 88.26560985 -171.19753379 86.39463621 C-164.68012128 79.85871241 -158.15755292 73.3279853 -151.63009185 66.80209738 C-145.56122993 60.73443417 -139.50357984 54.65573777 -133.45115972 48.57167792 C-128.2445836 43.33886384 -123.03023686 38.11387839 -117.80988801 32.89480436 C-114.69677039 29.78219457 -111.58677702 26.66661895 -108.48457068 23.54313093 C-105.56075415 20.59980757 -102.62729563 17.66643355 -99.68649215 14.74008566 C-98.61526725 13.67093525 -97.54737214 12.5984352 -96.48329657 11.52216917 C-70.88708819 -14.34791127 -30.8269693 -23.17259738 0 0 Z " fill="#231F20" transform="translate(771.4555312991142,625.0018576979637)"/>
<path d="M0 0 C2.57912715 1.26279023 4.2653199 2.97213046 6.29045939 5.00686532 C7.6075162 6.31942048 7.6075162 6.31942048 8.95118022 7.65849191 C9.90263722 8.62196499 10.85385907 9.58567033 11.80486369 10.54958993 C12.79070319 11.53849059 13.77713764 12.52679845 14.76413798 13.51454049 C16.8339964 15.58900219 18.89885149 17.66827295 20.95989299 19.75149423 C23.58220728 22.40190547 26.21294466 25.04373971 28.84709716 27.6823805 C31.37783534 30.2183202 33.90389688 32.75889925 36.42986369 35.29958993 C36.90343114 35.7750381 37.37699859 36.25048627 37.86491656 36.74034196 C39.2306748 38.11310272 40.59264922 39.48962473 41.95452189 40.86624032 C43.11223849 42.03419893 43.11223849 42.03419893 44.29334331 43.22575265 C46.25235559 45.29380232 48.1148524 47.38474991 49.96837687 49.54420358 C54.49053549 54.74352079 59.37041806 59.57559169 64.24993205 64.43630868 C65.28564924 65.47174321 66.32114512 66.50739915 67.3564384 67.54325753 C70.14502355 70.33212758 72.93666355 73.11792091 75.72889471 75.90313989 C78.6548309 78.822791 81.577903 81.74530678 84.50129008 84.66750985 C90.0274827 90.19060428 95.55621767 95.71114637 101.08588821 101.23075849 C107.38537898 107.519041 113.68200345 113.8101903 119.97839797 120.10157281 C132.92129008 133.03403479 145.86774747 145.96292222 158.81658244 158.88943368 C157.48771833 161.83578661 156.04222842 163.91305842 153.75936007 166.19275171 C153.12836677 166.8277271 152.49737347 167.4627025 151.84725916 168.11691958 C151.15271415 168.8056389 150.45816914 169.49435823 149.74257731 170.20394784 C149.00582904 170.94240497 148.26908077 171.68086209 147.51000679 172.4416967 C145.03343482 174.92156996 142.54976905 177.39421483 140.06609416 179.86697274 C138.29199322 181.64050971 136.51833222 183.41448686 134.74507976 185.18887216 C130.92297036 189.01143739 127.09781343 192.83091156 123.26985621 196.64762002 C117.73528044 202.16594257 112.20623474 207.68977867 106.67852367 213.21497658 C97.71005884 222.17906404 88.73713665 231.13867595 79.76140666 240.09548837 C71.04226734 248.79627 62.32523081 257.49914948 53.61101604 266.20486337 C53.07388228 266.74147168 52.53674852 267.27807999 51.98333798 267.83094916 C49.28871204 270.52296503 46.59412741 273.21502224 43.89956331 275.90710002 C21.54497063 298.24095886 -0.81693139 320.56748552 -23.18341756 342.88943368 C-18.92685619 347.97218316 -14.47688018 352.736726 -9.78024983 357.41285592 C-9.05641807 358.13754211 -8.33258631 358.8622283 -7.58682024 359.60887468 C-5.17558476 362.02174927 -2.76080739 364.43104675 -0.34601521 366.84036142 C1.38905276 368.57514715 3.12390024 370.31015344 4.85854411 372.04536325 C8.58602681 375.77307322 12.31503033 379.49925153 16.0454452 383.2240265 C21.43890573 388.60933814 26.82958209 393.9974297 32.2195967 399.38619 C40.96595172 408.13035983 49.71453463 416.87229708 58.46453166 425.61282235 C66.96115022 434.10025303 75.45671126 442.58873997 83.95085979 451.07864267 C84.47499467 451.60251482 84.99912955 452.12638698 85.5391473 452.66613405 C88.16873726 455.29441892 90.79830653 457.92272449 93.42786551 460.55104035 C115.22089694 482.33371574 137.0175867 504.11272699 158.81658244 525.88943368 C156.86399741 530.15451988 153.91257646 533.06569183 150.61574626 536.3307789 C149.97291969 536.97531432 149.33009312 537.61984974 148.66778696 538.28391653 C146.50905926 540.44594275 144.34325289 542.60073557 142.17742229 544.75564462 C140.62991942 546.30258345 139.0828566 547.84996259 137.53620219 549.39774972 C133.3322442 553.60228253 129.1221396 557.80061191 124.91092706 561.99787694 C120.51243799 566.38388015 116.11959607 570.77553176 111.72615886 575.16659433 C104.35000936 582.53722997 96.97037643 589.9043627 89.58806682 597.26882821 C81.98448638 604.8540488 74.38301071 612.44136848 66.78435588 620.03152353 C66.31592302 620.49943094 65.84749016 620.96733835 65.36486237 621.44942477 C63.01487006 623.796807 60.66492132 626.14423283 58.31498861 628.49167472 C38.82182905 647.96391808 19.32154513 667.4290138 -0.18341756 686.88943368 C-3.95653342 685.32018168 -6.35193771 682.97256964 -9.22635865 680.10096818 C-9.72297115 679.60756216 -10.21958365 679.11415614 -10.73124501 678.60579842 C-12.40136909 676.94400445 -14.06425642 675.27515206 -15.72728658 673.60626107 C-16.93246926 672.40409775 -18.13808597 671.20236942 -19.34410006 670.00104016 C-22.66287868 666.69257909 -25.9753571 663.37787169 -29.28684461 660.06211501 C-32.85737342 656.48912562 -36.43362568 652.92187287 -40.00913167 649.35386544 C-47.01709001 642.35867723 -54.01953745 635.35799727 -61.01994421 628.35525264 C-66.71230494 622.66111026 -72.40642602 616.96873406 -78.10180783 611.27761346 C-78.91184821 610.46816827 -79.72188859 609.65872308 -80.55647564 608.82474925 C-82.20205774 607.18037891 -83.84764102 605.53600975 -85.49322549 603.89164178 C-100.93888931 588.45686355 -116.37801656 573.01555964 -131.81519101 557.57229142 C-145.92822583 543.45409321 -160.04944136 529.34411027 -174.17456897 515.23801167 C-188.67964581 500.75232575 -203.17913945 486.26107297 -217.67264658 471.76381081 C-225.80892981 463.62561659 -233.94739192 455.48963062 -242.0917027 447.35946923 C-249.02947577 440.43362728 -255.96194385 433.50252776 -262.88770678 426.56467499 C-266.41918237 423.02732134 -269.95298369 419.4923801 -273.49340558 415.96397859 C-276.74032644 412.72795315 -279.9801285 409.48496756 -283.21461121 406.23651128 C-284.38027308 405.06821241 -285.54842218 403.9023882 -286.71942034 402.73943801 C-295.95892261 393.55899579 -305.1981373 383.97708343 -310.12091756 371.70193368 C-310.39742146 371.06835946 -310.67392537 370.43478524 -310.95880818 369.78201181 C-317.81191178 353.49561933 -317.44782403 333.27027297 -311.18341756 316.88943368 C-305.49920137 302.99842017 -295.5104209 292.91808022 -285.04895711 282.48081857 C-283.82767183 281.25507306 -282.60681546 280.02890009 -281.38634777 278.80234051 C-278.0531547 275.45505391 -274.71381394 272.11396172 -271.37334681 268.77393645 C-267.7638361 265.1627701 -264.16004672 261.54590126 -260.55544209 257.92983896 C-252.68735071 250.03896707 -244.81186628 242.15550176 -236.93491006 234.27348047 C-232.01755682 229.35286564 -227.10183712 224.43062115 -222.18646169 219.50803071 C-208.57558416 205.87760545 -194.96314353 192.24874689 -181.34394383 178.62663633 C-180.47378573 177.75629065 -179.60362762 176.88594498 -178.70710109 175.98922519 C-176.94317953 174.22493738 -175.17925669 172.46065084 -173.41533259 170.69636557 C-172.53974301 169.82059319 -171.66415343 168.9448208 -170.76203084 168.04250985 C-169.88537274 167.1656712 -169.00871463 166.28883255 -168.10549113 165.38542303 C-153.8695431 151.14592579 -139.64539663 136.89470224 -125.42634931 122.63833044 C-110.82665832 108.00062221 -96.2176916 93.37222715 -81.59913063 78.75336361 C-73.39156574 70.54521308 -65.18803416 62.33311933 -56.99461293 54.11084825 C-50.02622055 47.11803142 -43.04939354 40.13377222 -36.06122908 33.16071192 C-32.49387798 29.60056335 -28.9307674 26.03641766 -25.37831998 22.46139222 C-22.13107873 19.19370961 -18.87267735 15.93761997 -15.60471591 12.690663 C-14.42016114 11.50963145 -13.23988099 10.32429495 -12.0641934 9.13443605 C-10.47411499 7.5264223 -8.86965008 5.93435536 -7.26038671 4.34557706 C-6.37010219 3.45447809 -5.47981767 2.56337911 -4.56255484 1.64527714 C-2.18341756 -0.11056632 -2.18341756 -0.11056632 0 0 Z " fill="#231F20" transform="translate(547.18341755867,767.1105663180351)"/>
<path d="M0 0 C1.29994904 0.00273422 1.29994904 0.00273422 2.62615967 0.00552368 C37.02163191 0.12664839 70.91300659 5.74983145 101.375 22.3125 C102.42171875 22.86679687 103.4684375 23.42109375 104.546875 23.9921875 C136.45824266 41.63630348 156.48799566 70.91450264 166.59277344 105.39160156 C168.65918266 113.10774385 170.375 121.29958269 170.375 129.3125 C141.665 129.3125 112.955 129.3125 83.375 129.3125 C82.33250993 126.18502978 81.29619711 123.05484112 80.33203125 119.90234375 C74.57913174 101.54411494 65.78512753 86.68150931 48.375 77.3125 C47.52421875 76.85230469 46.6734375 76.39210938 45.796875 75.91796875 C22.31624095 64.28310367 -11.8602987 63.11120282 -36.625 71.3125 C-37.75421875 71.68632813 -38.8834375 72.06015625 -40.046875 72.4453125 C-51.23977798 76.64961188 -61.47511559 84.51830085 -67.1640625 95.203125 C-73.60482731 109.8925886 -74.61019885 124.95808754 -69.625 140.3125 C-68.23934073 143.54570497 -66.60860436 146.41162195 -64.625 149.3125 C-64.24085938 149.90289063 -63.85671875 150.49328125 -63.4609375 151.1015625 C-45.99601114 174.56670896 -4.08245456 180.25022487 22.24255371 186.84033203 C73.60581483 199.70478157 135.61865712 216.42872854 165.64160156 264.33349609 C177.64472154 284.49137147 182.00449752 306.49728227 181.75 329.75 C181.74534729 330.5131955 181.74069458 331.27639099 181.73590088 332.06271362 C181.65546603 343.33670305 181.36801762 354.38112835 178.375 365.3125 C178.17632324 366.04098145 177.97764648 366.76946289 177.77294922 367.52001953 C168.49645606 400.19968044 147.7940683 426.22773513 118.375 443.3125 C83.62425685 462.14889519 44.62931383 468.55724605 5.4375 468.5 C4.66943024 468.49939575 3.90136047 468.4987915 3.11001587 468.49816895 C-48.1294304 468.38917854 -100.20663301 456.31452911 -137.625 419.3125 C-161.4902012 395.16611823 -174.45435016 363.67769874 -178.625 330.3125 C-149.585 330.3125 -120.545 330.3125 -90.625 330.3125 C-88.975 335.9225 -87.325 341.5325 -85.625 347.3125 C-84.25675314 350.47396088 -82.98628585 353.29628251 -81.3125 356.25 C-80.92642578 356.95181396 -80.54035156 357.65362793 -80.14257812 358.37670898 C-69.26824219 377.65373863 -51.74179117 390.28499759 -30.625 396.3125 C-0.00209673 404.01633721 36.60514674 405.19073687 65.375 390.3125 C78.77014168 382.04059976 87.14868221 371.45702912 91.25 356.125 C94.68670055 339.02332345 92.58388809 321.29608276 83.375 306.3125 C64.82808432 278.80854367 18.14567988 270.31018821 -11.53320312 263.15576172 C-59.18688903 251.66768148 -118.64943081 235.4394103 -146.625 191.3125 C-162.50363662 164.22541399 -166.59752139 129.91200147 -159.17285156 99.38671875 C-150.56396494 66.79264535 -131.82253357 40.69976187 -102.81640625 23.3671875 C-71.42547682 5.54905716 -35.6344524 -0.15719435 0 0 Z " fill="#231F20" transform="translate(2677.625,812.6875)"/>
<path d="M0 0 C30.62454576 -0.09160792 61.24905965 -0.16222188 91.87371005 -0.20426132 C95.50410445 -0.20926306 99.13449858 -0.21444046 102.76489258 -0.21972656 C103.84883401 -0.22130043 103.84883401 -0.22130043 104.95467325 -0.22290608 C116.59562283 -0.24022563 128.23649193 -0.27171565 139.87739406 -0.30861118 C151.85678087 -0.34625773 163.83612606 -0.36828541 175.81556958 -0.37635398 C182.52962395 -0.38130987 189.24348595 -0.39355661 195.95748329 -0.42292023 C202.29976868 -0.45042877 208.641801 -0.45837473 214.9841404 -0.45243073 C217.29005823 -0.45351534 219.59598611 -0.46125499 221.90185165 -0.4768219 C251.73985075 -0.66807476 281.0522776 3.74199911 308 17 C308.64163086 17.31195312 309.28326172 17.62390625 309.94433594 17.9453125 C340.93785914 33.18650532 363.36959453 59.0810408 374.75 91.5 C379.61036509 106.73660503 381.23690669 121.88038886 381.25 137.8125 C381.25067474 138.54887695 381.25134949 139.28525391 381.25204468 140.04394531 C381.19791623 177.26003653 369.19200994 211.74575915 342.52294922 238.53857422 C313.60663998 266.28673503 270.976426 279.02880219 231.60302734 279.18945312 C230.49749008 279.19774643 229.39195282 279.20603973 228.25291443 279.21458435 C225.86312622 279.23191014 223.47332174 279.24709692 221.08350754 279.26036072 C217.27906902 279.28156699 213.4747094 279.3085821 209.6703186 279.33703613 C202.25648786 279.39151336 194.84263 279.43998598 187.42874908 279.48697662 C177.39813651 279.55058344 167.36756367 279.61736979 157.33702469 279.69187927 C153.6291859 279.71800489 149.92134239 279.73909698 146.21347046 279.7598877 C131.78855197 279.85616799 117.40602691 280.24867713 103 281 C104.02843018 281.56726807 104.02843018 281.56726807 105.07763672 282.14599609 C115.42908879 287.93204258 122.23055197 294.69165592 126 306 C126.09146478 308.00410767 126.12194181 310.01118672 126.12025452 312.01737976 C126.12231651 313.90412918 126.12231651 313.90412918 126.12442017 315.82899475 C126.12088102 317.22543359 126.11724621 318.62187218 126.11352539 320.01831055 C126.11324336 321.48671466 126.11340156 322.95511892 126.1139679 324.42352295 C126.11425525 328.4128998 126.10836843 332.4022467 126.10139394 336.39161658 C126.09515019 340.55964491 126.09455579 344.72767389 126.09336853 348.89570618 C126.09025824 356.78983202 126.0820489 364.68394404 126.07201904 372.57806379 C126.05876058 383.24442743 126.05335556 393.91079484 126.04751682 404.57716465 C126.03810882 421.38478679 126.01818788 438.19237976 126 455 C97.62 455 69.24 455 40 455 C39.98541748 442.17261963 39.97083496 429.34523926 39.95581055 416.12915039 C39.90706342 375.09678462 39.84365719 334.06445324 39.77101372 293.03212309 C39.75974542 286.65968057 39.74860699 280.28723782 39.73754883 273.91479492 C39.73534514 272.64614444 39.73314146 271.37749395 39.730871 270.07039952 C39.69548871 249.52263164 39.67062982 228.97486381 39.64965298 208.42707676 C39.62789837 187.34662757 39.59485115 166.26621794 39.55129844 145.1858024 C39.52477593 132.17575567 39.50708495 119.16575826 39.50065396 106.15568583 C39.49540194 97.23687582 39.47919113 88.31812789 39.45433434 79.39935113 C39.4403131 74.25200359 39.43115091 69.1047672 39.43499184 63.95739937 C39.43840245 59.24380594 39.42803482 54.53044989 39.40676448 49.81690507 C39.40149692 48.11286127 39.40126134 46.4087928 39.40660437 44.70474923 C39.44298417 31.78486871 38.42986507 21.72340172 29 12 C20.67551839 4.93204392 10.77031826 1.70625038 0 1 C0 0.67 0 0.34 0 0 Z M96 69 C98.26813024 70.14090141 100.54084647 71.25368452 102.83984375 72.33203125 C113.17042116 77.26934378 113.17042116 77.26934378 117 82 C117.51175781 82.62003906 118.02351563 83.24007812 118.55078125 83.87890625 C124.52397618 91.39173137 125.29939381 97.74040352 125.31884766 107.14599609 C125.32889328 108.2587793 125.3389389 109.3715625 125.34928894 110.51806641 C125.38011454 114.18651831 125.39715463 117.85489725 125.4140625 121.5234375 C125.43277461 124.07077665 125.45234806 126.6181096 125.4727478 129.16543579 C125.51882806 135.17884285 125.55623791 141.19224307 125.58942068 147.20573008 C125.62769923 154.05464809 125.67709427 160.90347197 125.72740483 167.75231051 C125.83060465 181.83480378 125.91990373 195.91735773 126 210 C137.81480412 210.04663613 149.62958581 210.08202645 161.44446373 210.10362434 C166.93241028 210.11399773 172.42029319 210.12803705 177.90820312 210.15087891 C183.21856931 210.17283983 188.52887484 210.18461688 193.83928299 210.18975449 C195.8507444 210.193409 197.86220304 210.20054324 199.87363815 210.21146011 C226.6690098 210.35091443 255.5909965 208.85650765 276.04003906 189.27246094 C289.28001468 175.81166572 293.76217095 158.12352326 294.3125 139.6875 C293.93543603 120.36297159 288.14827917 103.71322971 274.9375 89.375 C256.15198478 71.38413433 229.16561242 68.8044437 204.41674805 68.88647461 C203.23466766 68.88632858 202.05258728 68.88618256 200.83468628 68.8860321 C196.97701093 68.88672168 193.11938553 68.89446881 189.26171875 68.90234375 C186.56744921 68.9047718 183.87317971 68.9056829 181.1789093 68.90663147 C174.84341728 68.90972113 168.50794281 68.91790214 162.17245847 68.92798096 C154.95101511 68.93921617 147.72957084 68.94467109 140.50812089 68.94967639 C125.67207115 68.96008713 110.83603674 68.97764005 96 69 Z " fill="#231F20" transform="translate(1406,826)"/>
<path d="M0 0 C0.89991669 0.00021149 1.79983337 0.00042297 2.72702026 0.00064087 C43.01092662 0.09492397 80.15169537 11.62860225 109.3125 40.1875 C142.70403819 73.91055925 152.78230654 122.51557498 153.1875 168.4375 C153.14664571 174.2388097 152.94068942 180.01978197 152.625 185.8125 C152.58584473 186.55314697 152.54668945 187.29379395 152.50634766 188.05688477 C152.18561557 193.25188443 152.18561557 193.25188443 151.0625 194.375 C148.12945272 194.47297065 145.21994612 194.50491804 142.28648376 194.49525452 C140.88862722 194.49653615 140.88862722 194.49653615 139.46253115 194.49784368 C136.31476407 194.49950134 133.16704934 194.49397247 130.01928711 194.48852539 C127.77286277 194.48824355 125.52643833 194.48840118 123.28001404 194.4889679 C117.16042571 194.48925601 111.04085679 194.48335706 104.92127299 194.47639394 C98.53374373 194.47016269 92.14621408 194.46955678 85.75868225 194.46836853 C75.03076781 194.46560882 64.30286189 194.45935329 53.57495117 194.45043945 C42.52319372 194.44126606 31.47143822 194.43418487 20.41967773 194.42993164 C19.73890547 194.42966892 19.0581332 194.42940619 18.35673147 194.42913551 C14.94163387 194.42783051 11.52653625 194.42656679 8.11143863 194.42532361 C-20.23821251 194.41495012 -48.58785587 194.39725692 -76.9375 194.375 C-76.6075 195.365 -76.2775 196.355 -75.9375 197.375 C-75.78305337 198.70476466 -75.66713351 200.03925852 -75.578125 201.375 C-73.84997555 223.96225661 -68.45759739 245.51106276 -53.9375 263.375 C-53.48117188 264.00535156 -53.02484375 264.63570312 -52.5546875 265.28515625 C-43.31559532 277.42875346 -27.33744956 284.07236365 -12.83203125 286.87109375 C6.95103213 289.43078801 28.33756732 286.99693382 44.91796875 275.13671875 C54.38440742 267.36009974 58.90539944 258.32095655 65.0625 247.375 C92.4525 247.375 119.8425 247.375 148.0625 247.375 C146.13920403 254.42708524 144.36262785 260.65626902 141.375 267.1875 C141.02687256 267.95594238 140.67874512 268.72438477 140.32006836 269.51611328 C132.90601077 285.59796611 123.21584712 299.47443082 111.0625 312.375 C110.46308594 313.03886719 109.86367187 313.70273438 109.24609375 314.38671875 C83.78773009 341.49465241 43.9885151 353.28611202 7.77734375 354.48364258 C-36.39752114 355.25925617 -76.99929406 346.58229559 -109.9375 315.375 C-110.82308594 314.55386719 -111.70867188 313.73273438 -112.62109375 312.88671875 C-144.99200623 281.89329191 -158.54316351 234.93779763 -160.04736328 191.17895508 C-161.04252751 136.86724006 -150.20217272 82.92212688 -111.9375 42.375 C-111.26460937 41.63765625 -110.59171875 40.9003125 -109.8984375 40.140625 C-81.60797439 10.26081003 -39.79851484 -0.08652349 0 0 Z M-50.625 79.5 C-66.14065323 95.74502154 -73.9375 119.11449962 -73.9375 141.375 C-26.7475 141.375 20.4425 141.375 69.0625 141.375 C69.0625 117.76002594 64.41835596 96.10011373 47.99609375 78.21484375 C21.45219222 52.95791926 -24.63267209 54.9695177 -50.625 79.5 Z " fill="#231F20" transform="translate(3073.9375,926.625)"/>
<path d="M0 0 C0.85442688 -0.00626404 1.70885376 -0.01252808 2.58917236 -0.01898193 C18.89294308 -0.09452941 35.20027045 1.40008944 50.875 6.125 C51.73270996 6.37773682 52.59041992 6.63047363 53.47412109 6.89086914 C88.01053714 17.47317308 114.99553382 40.53061955 132.07714844 72.17089844 C147.11909554 101.24030662 152.45667115 133.60299848 152.38037109 166.02758789 C152.37497773 168.76128599 152.38036075 171.4948223 152.38671875 174.22851562 C152.38605847 175.98177119 152.38477835 177.73502666 152.3828125 179.48828125 C152.38483673 180.29775711 152.38686096 181.10723297 152.38894653 181.9412384 C152.38579437 182.70611069 152.38264221 183.47098297 152.37939453 184.2590332 C152.37820114 185.25517387 152.37820114 185.25517387 152.37698364 186.2714386 C152.21617094 189.01454925 151.70173889 191.72706669 151.25 194.4375 C76.01 194.4375 0.77 194.4375 -76.75 194.4375 C-73.20327247 223.99356274 -69.03361245 253.46593089 -44.75 273.4375 C-26.32717553 286.56317647 -6.07492421 289.85071299 16.03417969 286.61523438 C32.86246324 283.76091327 45.86098651 276.79206372 56.08203125 262.953125 C59.14987654 257.97824075 61.6361466 252.66520681 64.25 247.4375 C91.64 247.4375 119.03 247.4375 147.25 247.4375 C145.90445467 253.492454 144.60391326 258.75391774 142.25 264.375 C141.94876221 265.0959082 141.64752441 265.81681641 141.3371582 266.55957031 C135.40286002 280.35915667 127.95186115 292.96761209 118.25 304.4375 C117.82638184 304.94474609 117.40276367 305.45199219 116.96630859 305.97460938 C92.07297954 335.52080964 54.29643816 350.78420472 16.42578125 354.12109375 C-27.96976424 357.23579222 -71.53181777 349.10787258 -106.140625 319.8359375 C-135.62908071 294.21247356 -151.87737341 256.46990866 -157.75 218.4375 C-157.92732666 217.30723389 -158.10465332 216.17696777 -158.28735352 215.01245117 C-159.87322313 203.83090588 -160.10878268 192.78183598 -160.0625 181.5 C-160.06034485 180.55384827 -160.0581897 179.60769653 -160.05596924 178.63287354 C-159.88629453 132.12729212 -149.33328635 85.68219623 -118.75 49.4375 C-117.73679687 48.22126953 -117.73679687 48.22126953 -116.703125 46.98046875 C-98.05865815 25.37602267 -72.23315559 11.35764226 -44.75 4.4375 C-43.92129395 4.22722168 -43.09258789 4.01694336 -42.23876953 3.80029297 C-28.26541407 0.45843575 -14.2937258 0.04893225 0 0 Z M-53.75 82.4375 C-66.73118116 98.03485011 -74.75 121.04352258 -74.75 141.4375 C-27.23 141.4375 20.29 141.4375 69.25 141.4375 C69.25 118.15831294 63.6246152 95.38176052 47.375 78 C19.25194957 52.09136299 -27.90913165 55.26629054 -53.75 82.4375 Z " fill="#231F20" transform="translate(4116.75,926.5625)"/>
<path d="M0 0 C1.24506821 -0.00855011 1.24506821 -0.00855011 2.51528931 -0.01727295 C4.26490025 -0.02665754 6.01452834 -0.03323064 7.76416016 -0.03710938 C10.37305731 -0.04672388 12.98113371 -0.07777223 15.58984375 -0.109375 C30.96379648 -0.2071657 45.95959765 1.51983296 60.7265625 5.953125 C61.59756592 6.20989014 62.46856934 6.46665527 63.3659668 6.73120117 C101.0362422 18.20446908 131.56326187 43.71410032 150.47094727 78.1574707 C164.2643942 104.27450297 172.007466 134.20870732 172.27734375 163.7578125 C172.29210251 165.09420525 172.29210251 165.09420525 172.30715942 166.45759583 C172.67669661 208.63222878 167.29450923 250.4304269 143.0390625 286.203125 C142.61318848 286.83492676 142.18731445 287.46672852 141.74853516 288.11767578 C130.64670819 304.31740371 116.79805613 318.83659526 100.0390625 329.203125 C99.10610352 329.78199463 99.10610352 329.78199463 98.15429688 330.37255859 C58.14013023 354.79326482 7.78516356 360.43768485 -37.50024414 349.50952148 C-77.10408512 339.28904537 -109.93060779 315.53968233 -130.9609375 280.203125 C-158.29096695 231.65353556 -162.94960542 171.21534522 -148.69970703 117.8203125 C-144.87044232 104.25464239 -139.71875979 91.56224101 -132.9609375 79.203125 C-132.38472656 78.13578125 -131.80851562 77.0684375 -131.21484375 75.96875 C-111.94079415 41.60485556 -79.48764775 17.26542054 -41.9609375 6.203125 C-28.14222107 2.65421775 -14.28689214 0.07896722 0 0 Z M-43.9609375 86.203125 C-44.66089844 86.89148438 -45.36085938 87.57984375 -46.08203125 88.2890625 C-68.49024354 111.78929293 -72.87468721 149.86421441 -72.14453125 180.91796875 C-71.02330934 210.71740087 -65.23176462 241.20772434 -44.9609375 264.203125 C-44.22101562 265.05003906 -43.48109375 265.89695312 -42.71875 266.76953125 C-30.31797948 280.08511271 -13.0591181 287.41451235 5.01953125 288.42578125 C23.2093353 288.9592492 39.61216968 284.55894657 54.0390625 273.203125 C54.79960937 272.61917969 55.56015625 272.03523438 56.34375 271.43359375 C72.46220084 258.187462 80.7239517 237.07270495 85.0390625 217.203125 C85.20277344 216.46835938 85.36648437 215.73359375 85.53515625 214.9765625 C93.18710439 178.67723827 90.92059274 131.30414294 71.0390625 99.203125 C60.41765331 83.0114737 46.11303217 71.69564022 27.09155273 67.30126953 C1.05587402 61.95108407 -24.77523617 67.04945322 -43.9609375 86.203125 Z " fill="#231F20" transform="translate(2271.9609375,926.796875)"/>
<path d="M0 0 C4.33910397 1.66360831 7.24027378 4.96864397 10.44134521 8.20083618 C11.08588063 8.84366275 11.73041605 9.48648932 12.39448285 10.14879549 C14.55650907 12.30752318 16.71130189 14.47332955 18.86621094 16.63916016 C20.41314977 18.18666302 21.96052891 19.73372584 23.50831604 21.28038025 C27.71284885 25.48433824 31.91117822 29.69444284 36.10844326 33.90565538 C40.49444647 38.30414446 44.88609808 42.69698637 49.27716064 47.09042358 C56.64779629 54.46657309 64.01492902 61.84620601 71.37939453 69.22851562 C78.96461512 76.83209606 86.55193479 84.43357173 94.14208984 92.03222656 C94.60999726 92.50065942 95.07790467 92.96909228 95.55999109 93.45172007 C97.90737331 95.80171238 100.25479915 98.15166112 102.60224104 100.50159383 C122.0744844 119.9947534 141.53958012 139.49503731 161 159 C159.33639169 163.33910397 156.03135603 166.24027378 152.79916382 169.44134521 C152.15633725 170.08588063 151.51351068 170.73041605 150.85120451 171.39448285 C148.69247682 173.55650907 146.52667045 175.71130189 144.36083984 177.86621094 C142.81333698 179.41314977 141.26627416 180.96052891 139.71961975 182.50831604 C135.51566176 186.71284885 131.30555716 190.91117822 127.09434462 195.10844326 C122.69585554 199.49444647 118.30301363 203.88609808 113.90957642 208.27716064 C106.53342691 215.64779629 99.15379399 223.01492902 91.77148438 230.37939453 C84.16790394 237.96461512 76.56642827 245.55193479 68.96777344 253.14208984 C68.49934058 253.60999726 68.03090772 254.07790467 67.54827993 254.55999109 C65.19828762 256.90737331 62.84833888 259.25479915 60.49840617 261.60224104 C41.0052466 281.0744844 21.50496269 300.53958012 2 320 C-2.33910397 318.33639169 -5.24027378 315.03135603 -8.44134521 311.79916382 C-9.08588063 311.15633725 -9.73041605 310.51351068 -10.39448285 309.85120451 C-12.55650907 307.69247682 -14.71130189 305.52667045 -16.86621094 303.36083984 C-18.41314977 301.81333698 -19.96052891 300.26627416 -21.50831604 298.71961975 C-25.71284885 294.51566176 -29.91117822 290.30555716 -34.10844326 286.09434462 C-38.49444647 281.69585554 -42.88609808 277.30301363 -47.27716064 272.90957642 C-54.64779629 265.53342691 -62.01492902 258.15379399 -69.37939453 250.77148438 C-76.96461512 243.16790394 -84.55193479 235.56642827 -92.14208984 227.96777344 C-92.60999726 227.49934058 -93.07790467 227.03090772 -93.55999109 226.54827993 C-95.90737331 224.19828762 -98.25479915 221.84833888 -100.60224104 219.49840617 C-120.0744844 200.0052466 -139.53958012 180.50496269 -159 161 C-157.33639169 156.66089603 -154.03135603 153.75972622 -150.79916382 150.55865479 C-150.15633725 149.91411937 -149.51351068 149.26958395 -148.85120451 148.60551715 C-146.69247682 146.44349093 -144.52667045 144.28869811 -142.36083984 142.13378906 C-140.81333698 140.58685023 -139.26627416 139.03947109 -137.71961975 137.49168396 C-133.51566176 133.28715115 -129.30555716 129.08882178 -125.09434462 124.89155674 C-120.69585554 120.50555353 -116.30301363 116.11390192 -111.90957642 111.72283936 C-104.53342691 104.35220371 -97.15379399 96.98507098 -89.77148438 89.62060547 C-82.16790394 82.03538488 -74.56642827 74.44806521 -66.96777344 66.85791016 C-66.49934058 66.39000274 -66.03090772 65.92209533 -65.54827993 65.44000891 C-63.19828762 63.09262669 -60.84833888 60.74520085 -58.49840617 58.39775896 C-39.0052466 38.9255156 -19.50496269 19.46041988 0 0 Z " fill="#231F20" transform="translate(729,950)"/>
<path d="M0 0 C36.63 0 73.26 0 111 0 C112.73989089 4.63970903 114.3986305 9.07785685 115.81152344 13.7890625 C116.13838638 14.87483078 116.46524933 15.96059906 116.80201721 17.07926941 C117.15094528 18.2493605 117.49987335 19.4194516 117.859375 20.625 C118.2362999 21.88230423 118.61322479 23.13960846 119.00157166 24.43501282 C120.03784373 27.89448129 121.06969787 31.35525162 122.10000229 34.81650162 C122.75513958 37.0172651 123.41105494 39.21779565 124.06704712 41.41830444 C174.80756742 211.71285132 174.80756742 211.71285132 184 259 C184.33 259 184.66 259 185 259 C185.21961395 258.01151817 185.21961395 258.01151817 185.44366455 257.00306702 C189.0914133 240.67395343 193.15637682 224.52511215 197.75 208.4375 C198.06680725 207.32181641 198.3836145 206.20613281 198.71002197 205.05664062 C206.21569169 178.67593581 214.50207729 152.55026328 222.8951416 126.440979 C224.65287628 120.96667738 226.4000845 115.48902212 228.1484375 110.01171875 C232.19999338 97.32949158 236.2756158 84.65507315 240.36056519 71.98356628 C241.03871656 69.87989884 241.7167458 67.77619205 242.39477539 65.67248535 C245.67572338 55.49364528 248.96078169 45.31613759 252.24845886 35.13946915 C252.99777991 32.81937399 253.74657695 30.49911029 254.49523926 28.17880249 C255.67110305 24.53484142 256.84860345 20.89141323 258.0273819 17.24839401 C258.46457401 15.89641215 258.90122184 14.54425416 259.33730316 13.1919136 C259.93561529 11.33685146 260.53610786 9.48249298 261.13671875 7.62817383 C261.47405029 6.58446121 261.81138184 5.5407486 262.15893555 4.46540833 C263 2 263 2 264 0 C291.39 0 318.78 0 347 0 C343.62456479 11.2514507 343.62456479 11.2514507 342.30859375 14.97583008 C342.00900253 15.82721054 341.70941132 16.678591 341.40074158 17.55577087 C341.08287186 18.4513118 340.76500214 19.34685272 340.4375 20.26953125 C340.09421158 21.24237564 339.75092316 22.21522003 339.39723206 23.21754456 C338.26736145 26.41676751 337.13383303 29.61467941 336 32.8125 C335.19517023 35.0873808 334.39040256 37.36228358 333.58569336 39.63720703 C325.58736422 62.22955422 317.49498843 84.78812069 309.39111328 107.34277344 C305.81761747 117.28979034 302.25237171 127.23976475 298.68649292 137.18951416 C296.70799891 142.70979691 294.72897255 148.2298888 292.75 153.75 C291.95833078 155.95833242 291.16666412 158.16666575 290.375 160.375 C266.62500001 226.62499998 266.62500001 226.62499998 265.43771362 229.93688965 C264.64532264 232.1472531 263.85294391 234.35762094 263.06057739 236.56799316 C261.09259288 242.05780166 259.12440167 247.54753588 257.15576172 253.03710938 C253.45972012 263.34425313 249.76579808 273.65214292 246.07879639 283.96252441 C244.34554325 288.80903429 242.61116819 293.65514234 240.87670898 298.5012207 C240.05372074 300.80163898 239.23127646 303.10225194 238.40942383 305.40307617 C237.26653427 308.6025526 236.12173468 311.80133999 234.9765625 315 C234.64713654 315.9238147 234.31771057 316.84762939 233.978302 317.79943848 C231.42766828 324.91493544 228.71573919 331.93907811 226 339 C196.96 339 167.92 339 138 339 C134.30644077 329.15050871 130.68424553 319.3509431 127.34765625 309.38671875 C126.70937864 307.49318499 126.07109687 305.59965263 125.43263626 303.70618057 C124.76516094 301.72533531 124.09889254 299.74408785 123.43295288 297.76272583 C121.08536462 290.77933469 118.72703146 283.79957014 116.3671875 276.8203125 C116.13256742 276.12626123 115.89794735 275.43220997 115.65621758 274.71712685 C111.74081882 263.13924061 107.74542982 251.59118939 103.6875 240.0625 C96.68159645 220.14808909 89.94626385 200.14401529 83.20436096 180.1391449 C76.76491881 161.03295695 70.29466989 141.94206778 63.59646606 122.9246521 C59.37373779 110.92652407 55.25642498 98.89473492 51.1875 86.84375 C50.93112322 86.08458975 50.67474644 85.3254295 50.41060066 84.54326439 C47.8272891 76.89224415 45.24837027 69.2397621 42.67720032 61.5846529 C34.08725457 28.56220699 34.08725457 28.56220699 12 5 C9.66647731 4.09169845 7.3562395 3.3146476 4.9453125 2.640625 C3 2 3 2 0 0 Z " fill="#231F20" transform="translate(3555,942)"/>
<path d="M0 0 C35.97 0 71.94 0 109 0 C109.33 19.14 109.66 38.28 110 58 C112.31 53.71 114.62 49.42 117 45 C119.28214711 41.87706184 121.52382478 38.94227879 124 36 C124.43441406 35.42121094 124.86882813 34.84242188 125.31640625 34.24609375 C140.72007932 14.42823377 168.13738424 5.41069989 192 2 C201.25003777 0.99661064 210.6868885 0 220 0 C220 21.12 220 42.24 220 64 C211.42 64.66 202.84 65.32 194 66 C168.93499037 70.55727448 146.59719655 79.30819688 131.23046875 100.65234375 C108.31137501 134.42837456 109.72029169 176.457439 109.59528303 215.64243293 C109.57936064 219.99854155 109.55266811 224.35458587 109.5272522 228.71064758 C109.48096814 236.91206166 109.44398502 245.11348856 109.41057932 253.31496412 C109.36474273 264.43112001 109.30405968 275.54719505 109.24433136 286.66328335 C109.15097509 304.10881448 109.07704054 321.55437149 109 339 C81.94 339 54.88 339 27 339 C26.970271 324.86385864 26.970271 324.86385864 26.93994141 310.44213867 C26.87510725 280.27429207 26.8005729 250.10647639 26.71994839 219.93866802 C26.70742981 215.25118578 26.69499699 210.56370331 26.68261719 205.8762207 C26.6789182 204.47645519 26.6789182 204.47645519 26.67514448 203.04841159 C26.63544174 187.94681346 26.6026834 172.84520787 26.57250018 157.74358805 C26.54136491 142.24313245 26.50274663 126.74270846 26.45720994 111.24228841 C26.42935586 101.68093051 26.40730948 92.11959567 26.39273749 82.55820815 C26.38217965 75.99790278 26.36434056 69.43764214 26.34083296 62.8773705 C26.32749209 59.09482247 26.31730676 55.31233699 26.31578636 51.52976418 C26.31405081 47.42159152 26.29695446 43.31362154 26.2784729 39.20549011 C26.28040763 38.01966455 26.28234237 36.83383899 26.28433573 35.61207932 C26.28955165 20.86277038 26.28955165 20.86277038 18.984375 8.65234375 C13.33954158 3.95201986 7.13251034 2.25479349 0 1 C0 0.67 0 0.34 0 0 Z " fill="#231F20" transform="translate(3281,942)"/>
<path d="M0 0 C35.97 0 71.94 0 109 0 C109.33 18.81 109.66 37.62 110 57 C111.98 53.37 113.96 49.74 116 46 C132.35166906 22.2433247 155.57577581 9.15196536 183.5 3.25 C195.05287434 1.26783171 207.27317721 0 219 0 C219 21.12 219 42.24 219 64 C206.625 64.99 206.625 64.99 194 66 C169.88896225 70.16733986 147.27440945 78.80317344 132 99 C109.39291831 131.53692833 109.70942806 170.60582676 109.59528303 208.64950204 C109.57945434 213.24587798 109.55272926 217.84219158 109.5272522 222.43852234 C109.4808086 231.10762794 109.44390009 239.77674574 109.41057932 248.44591063 C109.36489291 260.18507557 109.30414819 271.92416252 109.24433136 283.66326237 C109.1507316 302.10880212 109.07696652 320.55436596 109 339 C81.94 339 54.88 339 27 339 C26.97494385 331.40250732 26.9498877 323.80501465 26.92407227 315.97729492 C26.84246598 291.40594477 26.75686536 266.83460999 26.66888306 242.26328189 C26.6551206 238.41876681 26.64139244 234.57425161 26.62768555 230.72973633 C26.62359309 229.58212512 26.62359309 229.58212512 26.61941796 228.41132984 C26.57586158 216.1744946 26.5350563 203.93765175 26.49534739 191.70080348 C26.45425298 179.05679858 26.41001806 166.41280721 26.36312145 153.76882249 C26.33700121 146.7039565 26.31215831 139.63909172 26.29092598 132.57420921 C26.23954608 115.69418522 26.15503277 98.8146605 26.02792978 81.93501997 C26.00390953 78.550813 25.98328117 75.16661868 25.96430005 71.7823819 C25.92521266 64.85741816 25.87174845 57.93283597 25.79299758 51.00820128 C25.75610724 47.74435458 25.72729921 44.48080857 25.71113503 41.21678388 C25.69198101 37.63662877 25.64819012 34.05757734 25.59825134 30.47773743 C25.59802424 29.42824988 25.59779713 28.37876232 25.59756315 27.29747212 C25.44789357 19.45378422 23.82943658 14.03646852 18.4375 8.25 C14.88859863 5.5542872 10.78180573 4.27552429 6.5859375 2.89453125 C4 2 4 2 0 0 Z " fill="#231F20" transform="translate(1842,942)"/>
<path d="M0 0 C12.21 0 24.42 0 37 0 C41.68935024 9.37870048 46.16689204 18.70307151 50.3125 28.3125 C51.21635574 30.39539388 52.12159906 32.47768158 53.02685547 34.55996704 C53.6679256 36.03485095 54.30854331 37.50993158 54.94873047 38.98519897 C57.44527843 44.73576885 59.96266664 50.47698624 62.48828125 56.21484375 C62.86921432 57.08035858 63.2501474 57.94587341 63.6426239 58.83761597 C64.41649003 60.59581096 65.19037007 62.35399983 65.96426392 64.11218262 C73.40982862 81.03251469 80.76891649 97.98683135 88 115 C93.69491324 104.1563771 98.46486811 92.92668081 103.3125 81.6875 C104.19525934 79.64794804 105.07840282 77.6085623 105.96191406 75.56933594 C107.76379778 71.4098886 109.56429046 67.24984365 111.36376953 63.08935547 C114.9563339 54.78674103 118.56724973 46.49214352 122.1824646 38.19937134 C123.21139155 35.83858389 124.23920794 33.47731564 125.2668457 31.1159668 C129.79398696 20.7211858 134.38574687 10.3564348 139 0 C151.21 0 163.42 0 176 0 C176 57.42 176 114.84 176 174 C162.47 174 148.94 174 135 174 C134.67 149.58 134.34 125.16 134 100 C122.59981408 127.48992182 122.59981408 127.48992182 111.32421875 155.03125 C111.06281601 155.67555466 110.80141327 156.31985931 110.53208923 156.98368835 C109.36256273 159.86874775 108.19698895 162.75533696 107.03588867 165.64379883 C106.63990479 166.62372803 106.2439209 167.60365723 105.8359375 168.61328125 C105.50126465 169.44641846 105.1665918 170.27955566 104.82177734 171.13793945 C104 173 104 173 103 174 C100.78144736 174.08783542 98.56011504 174.10694609 96.33984375 174.09765625 C95.34314415 174.09553383 95.34314415 174.09553383 94.3263092 174.09336853 C92.19666101 174.08775518 90.06711661 174.07520054 87.9375 174.0625 C86.49674631 174.05748671 85.05599097 174.05292351 83.61523438 174.04882812 C80.07678898 174.03778145 76.53840461 174.02050792 73 174 C64.82436263 155.75206758 57.0408208 137.34379495 49.2878418 118.91333008 C48.88012039 117.94445862 48.47239899 116.97558716 48.05232239 115.97735596 C47.27718271 114.13476126 46.50273021 112.29187729 45.72904968 110.44866943 C45.38388809 109.62779846 45.0387265 108.80692749 44.68310547 107.96118164 C44.38097137 107.24160782 44.07883728 106.522034 43.76754761 105.78065491 C43.21687685 104.50313859 42.62213925 103.2442785 42 102 C41.67 125.76 41.34 149.52 41 174 C27.47 174 13.94 174 0 174 C0 116.58 0 59.16 0 0 Z " fill="#231F20" transform="translate(4093,1409)"/>
<path d="M0 0 C4.82787363 4.1604911 8.73275084 8.61308048 12.15625 13.9765625 C12.60613281 13.40808594 13.05601563 12.83960938 13.51953125 12.25390625 C22.00119861 2.07250595 32.88470399 -4.94947446 46.32910156 -6.23046875 C58.67326924 -6.9630603 70.17319924 -6.01791276 80.15625 1.9765625 C90.29487363 11.00125914 93.68511728 22.84783035 95.15625 35.9765625 C95.5016686 42.63048411 95.39012673 49.30072252 95.3515625 55.9609375 C95.34782498 57.87192638 95.34498151 59.7829172 95.34298706 61.69390869 C95.33540875 66.68495116 95.31581115 71.67587428 95.2935791 76.66687012 C95.26936534 82.67595962 95.26031203 88.68508938 95.24867249 94.69421387 C95.22938257 103.78841268 95.19101971 112.88235044 95.15625 121.9765625 C80.30625 121.9765625 65.45625 121.9765625 50.15625 121.9765625 C50.11886719 116.30597656 50.08148437 110.63539062 50.04296875 104.79296875 C50.01267207 101.18812137 49.98151311 97.58332236 49.94726562 93.97851562 C49.89305741 88.26410434 49.84194297 82.54978872 49.80981445 76.83520508 C49.78369427 72.22496791 49.74323086 67.61505422 49.69306374 63.00501823 C49.67645375 61.25132221 49.66490309 59.49757032 49.65863609 57.74380684 C50.25245961 43.27152082 50.25245961 43.27152082 44.09375 30.9140625 C38.57447024 29.15259024 33.34501975 29.27450428 27.84375 31.0390625 C22.38932013 34.97132589 19.90255864 39.46291283 18.5491333 46.06906128 C17.66555926 52.60787979 17.79043283 59.2365111 17.7421875 65.82421875 C17.72344935 67.44804336 17.70387402 69.07185851 17.6835022 70.69566345 C17.63245428 74.94190863 17.59268337 79.18818529 17.55535889 83.43457031 C17.50805988 88.5442999 17.44658062 93.65387666 17.38751221 98.76348114 C17.29963375 106.5011123 17.22963109 114.23871915 17.15625 121.9765625 C2.30625 121.9765625 -12.54375 121.9765625 -27.84375 121.9765625 C-27.89982422 113.345 -27.89982422 113.345 -27.95703125 104.5390625 C-27.9873228 100.88408517 -28.01847842 97.22915583 -28.05273438 93.57421875 C-28.10697285 87.77850823 -28.15808626 81.98289265 -28.19018555 76.18701172 C-28.21627818 71.51194231 -28.25672258 66.83719336 -28.30693626 62.162323 C-28.32356474 60.38268025 -28.33510397 58.60298213 -28.34136391 56.82327271 C-28.35104896 54.32194775 -28.37915965 51.82143526 -28.41137695 49.3203125 C-28.40994186 48.59166489 -28.40850677 47.86301727 -28.4070282 47.11228943 C-28.51370905 41.21977921 -29.51387002 35.23584006 -33.90625 30.9765625 C-38.86825037 29.28737088 -43.86842057 29.02986677 -48.90625 30.6328125 C-54.17792653 33.26865077 -56.59390739 37.26438451 -58.43247986 42.72515869 C-59.02595727 45.97401427 -59.02222268 49.20723571 -59.04907227 52.49902344 C-59.05897186 53.25063248 -59.06887146 54.00224152 -59.07907104 54.77662659 C-59.11059466 57.25469846 -59.13540723 59.73278948 -59.16015625 62.2109375 C-59.18073367 63.93158459 -59.20173036 65.6522267 -59.22312927 67.37286377 C-59.27826851 71.89703342 -59.32771367 76.42124807 -59.37597656 80.94549561 C-59.43509358 86.37627576 -59.50127667 91.80697384 -59.56627655 97.23768616 C-59.66418355 105.48392805 -59.75310969 113.7302231 -59.84375 121.9765625 C-75.02375 121.9765625 -90.20375 121.9765625 -105.84375 121.9765625 C-106.17375 80.7265625 -106.50375 39.4765625 -106.84375 -3.0234375 C-92.98375 -3.0234375 -79.12375 -3.0234375 -64.84375 -3.0234375 C-64.18375 1.2665625 -63.52375 5.5565625 -62.84375 9.9765625 C-62.51375 10.3065625 -62.18375 10.6365625 -61.84375 10.9765625 C-61.45445313 10.46867187 -61.06515625 9.96078125 -60.6640625 9.4375 C-47.11605153 -7.23217248 -18.19397187 -12.94571075 0 0 Z " fill="#231F20" transform="translate(1903.84375,1461.0234375)"/>
<path d="M0 0 C15.18 0 30.36 0 46 0 C47.29035156 3.40054687 48.58070313 6.80109375 49.91015625 10.3046875 C51.18431483 13.66103619 52.45872321 17.01728993 53.7331543 20.37353516 C54.60711233 22.67551975 55.48081767 24.9776003 56.35424805 27.27978516 C61.51263418 40.8756692 66.69901756 54.45900664 72 68 C75.42437981 60.62564176 78.31263375 53.078283 81.16796875 45.46875 C81.65279477 44.18351865 82.13793319 42.89840511 82.62336731 41.61340332 C84.4080108 36.88722453 86.18702796 32.15893268 87.96612549 27.43066406 C89.47926843 23.40984751 90.99457826 19.38986119 92.5128727 15.37098694 C93.22246272 13.48997277 93.92877818 11.60772437 94.63505554 9.72546387 C95.06252579 8.59338501 95.48999603 7.46130615 95.93041992 6.29492188 C96.30696213 5.29392456 96.68350433 4.29292725 97.07145691 3.26159668 C98 1 98 1 99 0 C101.14558827 -0.08775605 103.29404421 -0.10695219 105.44140625 -0.09765625 C106.74658203 -0.09443359 108.05175781 -0.09121094 109.39648438 -0.08789062 C110.7851569 -0.07953401 112.17382877 -0.07106905 113.5625 -0.0625 C114.95507656 -0.05748666 116.34765481 -0.05292347 117.74023438 -0.04882812 C121.1601987 -0.03699434 124.58007844 -0.0205088 128 0 C128.39155273 1.01908447 128.78310547 2.03816895 129.18652344 3.08813477 C137.76137711 25.40361916 146.35741411 47.71065514 155 70 C155.23723785 69.35901367 155.47447571 68.71802734 155.71890259 68.05761719 C157.98297993 61.94055799 160.24739169 55.82362269 162.51215553 49.70681763 C163.67576096 46.56405057 164.83921153 43.4212264 166.00244141 40.27832031 C167.34766243 36.6437619 168.69332456 33.00936705 170.0390625 29.375 C170.64882431 27.72709473 170.64882431 27.72709473 171.27090454 26.04589844 C174.4898458 17.35463546 177.74563007 8.6783198 181 0 C195.52 0 210.04 0 225 0 C221.62512803 10.12461591 221.62512803 10.12461591 220.14086914 13.66625977 C219.63629936 14.87702179 219.63629936 14.87702179 219.12153625 16.11224365 C218.76303085 16.96336731 218.40452545 17.81449097 218.03515625 18.69140625 C217.64962082 19.61415344 217.26408539 20.53690063 216.86686707 21.48760986 C215.60171714 24.5138267 214.33210552 27.53815008 213.0625 30.5625 C212.17316698 32.68760372 211.28417524 34.81285028 210.39550781 36.93823242 C208.54051129 41.37407475 206.68403148 45.80929219 204.82666016 50.24414062 C202.0472494 56.88349146 199.27786785 63.52698964 196.51171875 70.171875 C196.0677626 71.2382872 195.62380646 72.3046994 195.16639709 73.40342712 C193.8608382 76.53974597 192.55541132 79.67611973 191.25 82.8125 C188.53968523 89.32399536 185.82735398 95.83463599 183.10913086 102.34283447 C182.35192421 104.15688859 181.59561582 105.97131785 180.84008789 107.78607178 C179.72387761 110.46644669 178.60450572 113.14548027 177.484375 115.82421875 C176.9779245 117.04308525 176.9779245 117.04308525 176.46124268 118.28657532 C174.11409561 123.88590439 174.11409561 123.88590439 173 125 C170.26105915 125.08858646 167.5474673 125.11523479 164.80859375 125.09765625 C163.98875504 125.0962413 163.16891632 125.09482635 162.32423401 125.09336853 C159.69528618 125.08775289 157.06642227 125.07519779 154.4375 125.0625 C152.65950643 125.05748701 150.88151154 125.05292376 149.10351562 125.04882812 C144.73564455 125.03777839 140.36783652 125.02050331 136 125 C130.72101761 114.03867458 126.22868683 102.80490777 121.75 91.5 C121.0237636 89.67434941 120.29720313 87.8488277 119.5703125 86.0234375 C118.24507393 82.69414803 116.92162887 79.36415958 115.60058594 76.03320312 C114.40555011 73.0200564 113.20619178 70.00870309 112 67 C108.89715995 73.77284811 106.13042887 80.64699501 103.453125 87.59765625 C102.8290274 89.20996376 102.8290274 89.20996376 102.19232178 90.85484314 C100.87611271 94.2565871 99.56300839 97.65951953 98.25 101.0625 C97.3530702 103.38224097 96.45593682 105.70190324 95.55859375 108.02148438 C93.36965982 113.67993926 91.18493662 119.33999394 89 125 C76.46 125 63.92 125 51 125 C43.43424313 107.47425941 36.02496502 89.89448173 28.73193359 72.25390625 C22.49790285 57.1779652 16.20346485 42.12776437 9.88818359 27.08569336 C8.19868339 23.06015118 6.51380202 19.03272058 4.8348999 15.00274658 C4.0936448 13.22463389 3.34906411 11.44790837 2.60400391 9.67138672 C2.23581543 8.77822754 1.86762695 7.88506836 1.48828125 6.96484375 C1.19091064 6.24804443 0.89354004 5.53124512 0.5871582 4.79272461 C0 3 0 3 0 0 Z " fill="#231F20" transform="translate(2969,1458)"/>
<path d="M0 0 C-2.36482701 7.61103027 -5.4358921 14.79148517 -8.6875 22.0625 C-9.45416992 23.79016602 -9.45416992 23.79016602 -10.23632812 25.55273438 C-11.48721306 28.37014812 -12.74184323 31.18582798 -14 34 C-17.4873949 32.65246292 -20.66516889 31.09546494 -23.90991211 29.23266602 C-30.06366583 25.73734697 -36.13437967 23.03757514 -42.9375 21.0625 C-43.62231445 20.86358154 -44.30712891 20.66466309 -45.01269531 20.4597168 C-57.407725 17.0785714 -71.51063722 16.04902812 -83.24609375 22.171875 C-86.40172538 24.29749797 -89.03728417 26.25610511 -90 30 C-90.67564716 35.60856123 -90.67564716 35.60856123 -88.29223633 40.47265625 C-80.52965935 49.03141617 -64.73295723 50.46313382 -53.85327148 52.97680664 C-34.78437834 57.41399524 -11.91954037 63.35134923 -0.6875 80.75 C5.87802966 92.68244765 7.08771055 106.87670944 3.75 120.0625 C3.20531966 121.72152636 2.62501051 123.3695378 2 125 C1.74476563 125.6909375 1.48953125 126.381875 1.2265625 127.09375 C-4.2639732 139.78746556 -16.13796641 148.19891303 -28.359375 153.61328125 C-51.65759235 162.48760224 -78.88911203 162.4076517 -103 157 C-103.75571289 156.83371094 -104.51142578 156.66742187 -105.29003906 156.49609375 C-117.74007519 153.65578133 -129.33095342 149.11269772 -140 142 C-139.15549735 135.48237613 -136.62714183 130.02510815 -133.96240234 124.06665039 C-133.12199966 122.18076718 -132.30083199 120.28724989 -131.48046875 118.39257812 C-130.95324219 117.20470703 -130.42601563 116.01683594 -129.8828125 114.79296875 C-129.40215332 113.7052417 -128.92149414 112.61751465 -128.42626953 111.49682617 C-127 109 -127 109 -124 108 C-121.50287308 109.1290837 -119.15078212 110.31744895 -116.75 111.625 C-102.02943293 119.30135905 -87.10932465 123.36848329 -70.4375 123.3125 C-68.99213867 123.33666992 -68.99213867 123.33666992 -67.51757812 123.36132812 C-58.43593894 123.36745195 -50.21578216 121.73562172 -43 116 C-41.25106876 112.50213752 -41.45564837 108.81709984 -42 105 C-48.70403303 94.46509095 -67.67419458 92.67108794 -79.07128906 90.02319336 C-87.46475723 88.0595757 -95.68234502 85.94760618 -103.765625 82.92578125 C-104.40804138 82.68565811 -105.05045776 82.44553497 -105.71234131 82.19813538 C-117.13770488 77.75742898 -128.16953527 70.37897976 -133.26171875 58.87109375 C-138.72204606 45.03248645 -138.58909412 29.79366374 -132.74609375 16.05078125 C-125.06609443 1.0465319 -112.61344784 -8.17860673 -97 -14 C-66.16789833 -23.48793205 -26.05256848 -20.51872935 0 0 Z " fill="#231F20" transform="translate(4063,1425)"/>
<path d="M0 0 C14.85 0 29.7 0 45 0 C45.33 33.99 45.66 67.98 46 103 C54.3213513 93.23248288 54.3213513 93.23248288 62.3125 83.25 C67.21822813 76.92748808 72.28835577 70.74893304 77.40551758 64.59667969 C77.97423584 63.9112207 78.5429541 63.22576172 79.12890625 62.51953125 C79.63494385 61.91214111 80.14098145 61.30475098 80.66235352 60.67895508 C81.85613749 59.1805699 82.93730701 57.59403949 84 56 C86.29055786 55.63923645 86.29055786 55.63923645 89.18408203 55.65942383 C90.80553635 55.65976372 90.80553635 55.65976372 92.45974731 55.66011047 C93.63060883 55.67559433 94.80147034 55.69107819 96.0078125 55.70703125 C97.20356903 55.71127609 98.39932556 55.71552094 99.63131714 55.71989441 C103.46277071 55.73673098 107.29370453 55.77439316 111.125 55.8125 C113.71744034 55.82754036 116.30988889 55.84122989 118.90234375 55.85351562 C125.26840748 55.88665082 131.63416662 55.9368997 138 56 C135.21194443 60.24594179 132.26826647 64.17162216 128.9375 68 C125.02306701 72.55707162 121.24118788 77.18833328 117.5625 81.9375 C113.31632216 87.40688172 108.8982383 92.695535 104.36645508 97.92993164 C99.8045875 103.2019402 95.38232092 108.57743118 91 114 C92.56714096 119.27879061 96.00003661 122.89190818 99.5 127 C100.77897352 128.52597927 102.05630672 130.05333478 103.33203125 131.58203125 C104.27296631 132.70859131 104.27296631 132.70859131 105.23291016 133.85791016 C108.45665601 137.76577782 111.50990351 141.79732422 114.578125 145.828125 C117.16901253 149.22135189 119.79667455 152.5831264 122.4375 155.9375 C122.88810791 156.51113281 123.33871582 157.08476563 123.80297852 157.67578125 C126.22539712 160.75690126 128.65920098 163.8284015 131.10546875 166.890625 C131.61086182 167.52621338 132.11625488 168.16180176 132.63696289 168.81665039 C133.60790749 170.03738024 134.58220728 171.25545114 135.56030273 172.47045898 C137.55082914 174.97836793 138.97834457 176.9350337 140 180 C132.40732874 180.43416642 124.81788644 180.72992613 117.21557617 180.93383789 C114.63558436 181.01888547 112.05640142 181.13458107 109.47924805 181.2824707 C88.68332463 182.44517565 88.68332463 182.44517565 82.61624146 178.4175415 C78.57390165 174.50275111 75.78239075 169.95937159 73.13015747 165.0295105 C71.69672954 162.45539396 69.95360383 160.29394949 68.01953125 158.078125 C67.21080566 157.10866943 67.21080566 157.10866943 66.38574219 156.11962891 C65.86657227 155.50265137 65.34740234 154.88567383 64.8125 154.25 C51.51121945 138.26682918 51.51121945 138.26682918 46 130 C45.67 146.5 45.34 163 45 180 C30.15 180 15.3 180 0 180 C0 120.6 0 61.2 0 0 Z " fill="#231F20" transform="translate(2540,1403)"/>
<path d="M0 0 C3.4611414 2.61558568 6.58319492 5.35401441 9.5 8.5625 C9.995 2.1275 9.995 2.1275 10.5 -4.4375 C25.02 -4.4375 39.54 -4.4375 54.5 -4.4375 C54.5 36.8125 54.5 78.0625 54.5 120.5625 C39.98 120.5625 25.46 120.5625 10.5 120.5625 C10.17 115.9425 9.84 111.3225 9.5 106.5625 C8.18 108.2125 6.86 109.8625 5.5 111.5625 C-6.73159388 121.00105276 -19.29004936 123.4234406 -34.5 122.5625 C-49.17036084 120.58183343 -61.29104245 113.66855164 -70.50390625 102.03125 C-82.50348675 84.40767604 -85.02486863 61.91013846 -81.3125 41.25 C-77.94943244 24.45712347 -69.58985652 9.61938715 -55.375 -0.125 C-38.53895932 -10.26774364 -16.61120098 -11.18813242 0 0 Z M-30.9375 33.875 C-38.38008278 43.69332248 -38.49519114 55.7419584 -37.5 67.5625 C-36.09424646 74.23982931 -33.62000194 79.99902001 -28.5 84.5625 C-21.36995129 88.61684142 -14.06146854 90.08089771 -6.08203125 87.90234375 C0.28741796 85.437783 4.40617081 81.68446962 7.49609375 75.6015625 C12.13209422 63.66774312 11.45127114 49.89097036 6.4375 38.25 C3.65471587 33.06427764 -0.19555892 30.02397865 -5.5 27.5625 C-14.76919903 25.29077497 -24.27869113 26.52049468 -30.9375 33.875 Z " fill="#231F20" transform="translate(3502.5,1462.4375)"/>
<path d="M0 0 C40.26 0 80.52 0 122 0 C122 11.88 122 23.76 122 36 C96.92 36 71.84 36 46 36 C46 46.23 46 56.46 46 67 C69.43 67 92.86 67 117 67 C117 79.21 117 91.42 117 104 C93.57 104 70.14 104 46 104 C46 127.1 46 150.2 46 174 C30.82 174 15.64 174 0 174 C0 116.58 0 59.16 0 0 Z " fill="#231F20" transform="translate(1406,1409)"/>
<path d="M0 0 C15.51 0 31.02 0 47 0 C56.44896829 22.83500671 65.26982775 45.88258293 74 69 C82.41253263 48.84682285 90.60436045 28.61138885 98.67822266 8.3203125 C99.78273191 5.54577873 100.89091661 2.77270848 102 0 C116.85 0 131.7 0 147 0 C143.62557596 10.12327211 143.62557596 10.12327211 142.12158203 13.40112305 C141.61349251 14.51796227 141.61349251 14.51796227 141.09513855 15.65736389 C140.73632095 16.43430099 140.37750336 17.2112381 140.0078125 18.01171875 C139.62583206 18.84928207 139.24385162 19.6868454 138.85029602 20.54978943 C138.03483487 22.33735566 137.21749256 24.12406476 136.39840698 25.90997314 C134.22764636 30.64478771 132.07244232 35.38666308 129.91796875 40.12890625 C129.48954178 41.07151306 129.06111481 42.01411987 128.6197052 42.98529053 C125.13759969 50.66200495 121.75914644 58.37756323 118.4375 66.125 C112.57301742 79.79065709 106.48133444 93.34969943 100.35327148 106.89892578 C99.62351103 108.51333545 98.89377429 110.12775583 98.1640625 111.7421875 C97.81092987 112.52243286 97.45779724 113.30267822 97.09396362 114.10656738 C95.37770873 117.90789543 93.68149112 121.71615851 92.02612305 125.54443359 C91.55696976 126.62859055 91.55696976 126.62859055 91.07833862 127.73464966 C90.49928943 129.0777501 89.92349546 130.42226136 89.35183716 131.76852417 C80.8012904 151.62400292 65.9734353 166.76051969 45.96826172 174.81835938 C37.07434315 178.13943864 28.54158507 179.82027836 19 180 C17.24675582 174.79286478 15.50606827 169.5818534 13.78271484 164.36474609 C13.29376983 162.88754042 12.80232587 161.41115677 12.30712891 159.93603516 C11.71539478 158.16907037 11.1384098 156.39718558 10.5625 154.625 C10.23378906 153.62726563 9.90507812 152.62953125 9.56640625 151.6015625 C8.98644814 148.93775492 9.08175684 147.53267068 10 145 C11.41539062 144.67128906 11.41539062 144.67128906 12.859375 144.3359375 C27.00366028 140.90864701 38.1260073 136.45380054 46.41015625 123.85546875 C48.93928667 119.37162059 49.07166041 117.12661263 48 112 C47.29338335 110.07340118 46.51862076 108.17094805 45.69140625 106.29296875 C45.20124023 105.17092041 44.71107422 104.04887207 44.20605469 102.89282227 C43.65829737 101.65767305 43.11044234 100.42256715 42.5625 99.1875 C41.98408061 97.86998227 41.40629967 96.55218409 40.82910156 95.23413086 C39.56915208 92.36041569 38.30496834 89.48861395 37.03759766 86.61816406 C34.92804041 81.83973303 32.82857694 77.0569045 30.73046875 72.2734375 C29.99001625 70.58576332 29.24953747 68.89810068 28.5090332 67.21044922 C28.13735016 66.36335388 27.76566711 65.51625854 27.38272095 64.64349365 C25.86623995 61.18807259 24.3488251 57.7330621 22.83128357 54.27810669 C21.67479498 51.64511112 20.51853629 49.01201468 19.36230469 46.37890625 C17.75432738 42.71711937 16.14544328 39.05573239 14.53613281 35.39453125 C12.5271896 30.82306595 10.52221321 26.24987839 8.51989746 21.67550659 C7.75990833 19.94097868 6.99860749 18.20702488 6.23596191 16.47366333 C5.18255465 14.07896671 4.13368927 11.68233156 3.0859375 9.28515625 C2.77125519 8.57262695 2.45657288 7.86009766 2.13235474 7.12597656 C0 2.22817092 0 2.22817092 0 0 Z " fill="#231F20" transform="translate(2315,1458)"/>
<path d="M0 0 C12.27721562 10.23101301 16.71398102 22.01821007 18.41506767 37.76681328 C18.7325689 41.427855 18.75650481 45.06393655 18.73852539 48.73657227 C18.73867142 49.53767929 18.73881744 50.33878632 18.7389679 51.16416931 C18.73827855 53.77744379 18.73053262 56.39064443 18.72265625 59.00390625 C18.72078859 60.82950298 18.71936633 62.65510022 18.71836853 64.48069763 C18.71457078 69.25966808 18.70476422 74.0386076 18.69366455 78.81756592 C18.68158136 84.56545625 18.67703512 90.31335698 18.67121124 96.06125641 C18.66155075 104.77002571 18.64237507 113.47872729 18.625 122.1875 C3.775 122.1875 -11.075 122.1875 -26.375 122.1875 C-26.42398438 116.80566406 -26.47296875 111.42382812 -26.5234375 105.87890625 C-26.55884971 102.45636214 -26.59482447 99.03384225 -26.6328125 95.61132812 C-26.69297038 90.18664129 -26.75111707 84.76198811 -26.796875 79.3371582 C-26.83392343 74.96039819 -26.88033478 70.5838259 -26.93306351 66.20722771 C-26.95150407 64.54283907 -26.96664959 62.87841035 -26.97834396 61.21396065 C-26.50566347 45.83816482 -26.50566347 45.83816482 -32.375 32.1875 C-37.63618848 29.61133185 -42.6301235 29.64600943 -48.375 30.1875 C-54.42679958 32.31683689 -58.22435174 35.92729805 -61.125 41.625 C-63.09299144 47.2337756 -63.50657355 52.46526256 -63.58032227 58.38623047 C-63.59022186 59.07961014 -63.60012146 59.77298981 -63.61032104 60.48738098 C-63.64169326 62.75978277 -63.66659647 65.03220541 -63.69140625 67.3046875 C-63.7119968 68.88795488 -63.7329938 70.47121703 -63.75437927 72.05447388 C-63.80938309 76.20706929 -63.85888735 80.35971251 -63.90722656 84.51239014 C-63.96646862 89.50269766 -64.03257642 94.49291843 -64.09752655 99.4831543 C-64.19526289 107.05121623 -64.28430553 114.61933565 -64.375 122.1875 C-79.225 122.1875 -94.075 122.1875 -109.375 122.1875 C-109.40005615 118.82723633 -109.4251123 115.46697266 -109.45092773 112.00488281 C-109.53459632 100.87293275 -109.62325637 89.74102641 -109.71433926 78.60913467 C-109.76944275 71.86330027 -109.82288508 65.11746059 -109.87231445 58.37158203 C-109.92023343 51.85521656 -109.97258398 45.33890007 -110.02794075 38.82259369 C-110.04824024 36.34287494 -110.06697274 33.86314283 -110.08407402 31.38339996 C-110.10839505 27.89650167 -110.13840846 24.40969355 -110.16967773 20.92285156 C-110.1754332 19.90936142 -110.18118866 18.89587128 -110.18711853 17.85166931 C-110.25768234 10.87881099 -110.79216787 4.1814856 -111.375 -2.8125 C-97.185 -2.8125 -82.995 -2.8125 -68.375 -2.8125 C-67.715 1.8075 -67.055 6.4275 -66.375 11.1875 C-64.23536651 11.41657473 -64.23536651 11.41657473 -62.7109375 9.61328125 C-62.06382812 8.91589844 -61.41671875 8.21851563 -60.75 7.5 C-45.14104739 -8.41831924 -19.29662123 -10.36300029 0 0 Z " fill="#231F20" transform="translate(3312.375,1460.8125)"/>
<path d="M0 0 C10.83571744 7.98009516 15.70945781 19.01243363 17.85348892 32.09369659 C18.80157802 39.62328897 18.48255679 47.29486976 18.41796875 54.8671875 C18.4123603 56.82015657 18.40809612 58.77312991 18.40510559 60.72610474 C18.39375503 65.81911259 18.3643743 70.91185601 18.33099365 76.00476074 C18.29462603 82.14068641 18.28108492 88.27670144 18.26363373 94.41270447 C18.23472941 103.69198583 18.17717438 112.97068913 18.125 122.25 C3.275 122.25 -11.575 122.25 -26.875 122.25 C-26.91238281 116.48402344 -26.94976563 110.71804688 -26.98828125 104.77734375 C-27.01856821 101.11780902 -27.04972082 97.45832251 -27.08398438 93.79882812 C-27.13824999 87.99424708 -27.18936239 82.18976139 -27.22143555 76.38500977 C-27.24750357 71.70346069 -27.28793077 67.02223297 -27.33818626 62.34088326 C-27.35483132 60.55762298 -27.36636028 58.77430714 -27.37261391 56.99098015 C-27.38228079 54.48705478 -27.41037021 51.98394717 -27.44262695 49.48022461 C-27.44119186 48.74798172 -27.43975677 48.01573883 -27.4382782 47.26130676 C-27.55152926 41.01830772 -28.82529637 36.24846104 -33.375 31.8125 C-38.90964612 29.34167584 -44.41067822 29.17208291 -50.22265625 30.98046875 C-55.91536225 33.58740888 -59.13509149 37.11273787 -61.45344543 42.93481445 C-62.94542163 47.02331291 -63.27045231 50.67155382 -63.30737305 55.04296875 C-63.3175647 55.77565475 -63.32775635 56.50834076 -63.33825684 57.26322937 C-63.36814809 59.6547331 -63.37761561 62.04583479 -63.38671875 64.4375 C-63.40358323 66.10759792 -63.42173584 67.77768329 -63.44111633 69.44775391 C-63.48843058 73.82061844 -63.51835965 78.19343205 -63.54455566 82.56646729 C-63.57972222 87.82554208 -63.63668167 93.08442139 -63.68994904 98.34333801 C-63.76824499 106.31219984 -63.81901489 114.28080962 -63.875 122.25 C-78.725 122.25 -93.575 122.25 -108.875 122.25 C-108.90005615 119.06738525 -108.9251123 115.88477051 -108.95092773 112.60571289 C-109.03479933 102.03259218 -109.12343086 91.4595151 -109.21433926 80.88645267 C-109.26925616 74.48266725 -109.32262223 68.07887709 -109.37231445 61.67504883 C-109.42042367 55.48285336 -109.47277593 49.29070636 -109.52794075 43.09856987 C-109.54815568 40.74858258 -109.56689993 38.39858211 -109.58407402 36.04857063 C-109.6798474 23.08442066 -109.92614399 10.18232102 -110.875 -2.75 C-104.91186834 -2.77464574 -98.94876605 -2.792834 -92.9855957 -2.80493164 C-90.95531702 -2.80997278 -88.92504198 -2.81680557 -86.89477539 -2.82543945 C-83.98322653 -2.83751467 -81.0717255 -2.84323034 -78.16015625 -2.84765625 C-77.2466188 -2.85281754 -76.33308136 -2.85797882 -75.39186096 -2.86329651 C-73.21924573 -2.86349168 -71.04672704 -2.81211805 -68.875 -2.75 C-66.86018266 -0.73518266 -67.1535973 3.04076863 -66.8125 5.8125 C-66.72162109 6.52341797 -66.63074219 7.23433594 -66.53710938 7.96679688 C-66.31260497 9.72738403 -66.09331603 11.48863478 -65.875 13.25 C-65.49730469 12.75371094 -65.11960937 12.25742188 -64.73046875 11.74609375 C-49.96419296 -6.47832626 -20.44392339 -12.67997902 0 0 Z " fill="#231F20" transform="translate(2793.875,1460.75)"/>
<path d="M0 0 C49.5 0 99 0 150 0 C150 12.54 150 25.08 150 38 C133.17 38 116.34 38 99 38 C99 82.88 99 127.76 99 174 C83.16 174 67.32 174 51 174 C51 129.12 51 84.24 51 38 C34.17 38 17.34 38 0 38 C0 25.46 0 12.92 0 0 Z " fill="#231F20" transform="translate(3766,1409)"/>
<path d="M0 0 C12.44332495 10.21496406 18.64465286 23.23740799 21.46484375 39.0234375 C22.97186924 59.67072604 20.72324667 79.56940097 6.77734375 95.8359375 C-6.47093311 109.59909508 -24.72040812 115.83977961 -43.54833984 116.37695312 C-63.06271156 116.54989016 -81.91701025 112.08479925 -96.94140625 98.9140625 C-110.44797828 85.12995817 -115.02633749 67.26740988 -114.89160156 48.42919922 C-114.40249404 29.88918866 -108.33834689 14.28199718 -94.91015625 1.2734375 C-69.69199388 -20.34213025 -25.85694128 -19.95844248 0 0 Z M-65.0625 28.796875 C-71.66138849 38.77397431 -71.152848 51.47663414 -69.25390625 62.8203125 C-67.51396799 70.57438516 -64.16761222 75.58232161 -57.53515625 80.0234375 C-51.47772182 83.05215471 -44.2612175 83.07657102 -37.8125 81.25390625 C-30.87343289 78.29198168 -27.35552314 73.94615622 -24.53515625 67.0234375 C-21.02148076 55.04965015 -21.28728677 40.84593564 -26.75390625 29.4921875 C-30.22200625 24.32857195 -34.51848644 21.5228897 -40.53515625 20.0234375 C-50.80288836 18.75094079 -58.50880954 20.58610108 -65.0625 28.796875 Z " fill="#231F20" transform="translate(1652.53515625,1468.9765625)"/>
<path d="M0 0 C0.77214844 0.62261719 1.54429687 1.24523438 2.33984375 1.88671875 C7.2298746 6.27520797 10.42048874 11.01690102 13.375 16.8125 C13.85767334 17.75307251 13.85767334 17.75307251 14.35009766 18.71264648 C19.11682837 28.6859781 20.54051707 38.84935758 20.4375 49.8125 C20.42614014 51.51708374 20.42614014 51.51708374 20.41455078 53.25610352 C20.05690537 71.55997817 14.22045539 86.14237014 1 99 C-14.44419612 112.9465771 -34.53967184 115.75409274 -54.55175781 115.13183594 C-71.50937698 114.21868134 -87.84371312 108.06243169 -100 96 C-112.64499614 81.89439078 -116.55485203 64.33273887 -116.25 45.83203125 C-115.11093216 28.372257 -109.18149686 12.21530316 -96.125 0.1875 C-69.76872799 -21.13156944 -26.38386297 -21.34180679 0 0 Z M-64.8125 25.5625 C-72.62053039 35.49189025 -71.85888868 47.94929275 -71 60 C-69.98866947 67.54397909 -66.85547172 73.08705894 -61 78 C-55.26133278 81.60334918 -48.58205323 81.81572455 -42 81 C-35.88587646 79.47626075 -31.70555836 76.63817552 -28.21875 71.37890625 C-22.34726938 59.91822773 -22.24048048 45.41608016 -26.0859375 33.3046875 C-28.62216234 26.90993255 -32.42663431 22.70160271 -38.625 19.75 C-48.37084773 17.58425606 -57.65251812 18.1633538 -64.8125 25.5625 Z " fill="#231F20" transform="translate(2947,1470)"/>
<path d="M0 0 C12.41723785 9.74826405 19.36540227 23.55580638 22 39 C22.12890625 39.7528125 22.2578125 40.505625 22.390625 41.28125 C23.29957333 47.88308524 23 54.27098975 23 61 C-2.74 61 -28.48 61 -55 61 C-51.6145098 73.87283624 -51.6145098 73.87283624 -43 82.26953125 C-32.15544391 87.74990513 -19.81877611 86.52620297 -8.56640625 82.890625 C-2.51600181 80.62434634 3.29193094 78.02191891 9 75 C11.78217533 81.00949871 14.33282495 87.11050023 16.8125 93.25 C17.13871338 94.03036621 17.46492676 94.81073242 17.80102539 95.61474609 C19.05371696 98.76149651 19.96958228 101.39587034 20.140625 104.79296875 C18.34920158 108.25925036 15.33302052 109.47481453 11.9375 111.0625 C11.2266626 111.40611572 10.5158252 111.74973145 9.78344727 112.10375977 C-11.10947427 121.78427689 -37.50290129 123.44129191 -59.26953125 115.5234375 C-74.47699185 109.51389537 -85.98375278 99.50138714 -92.97265625 84.51171875 C-100.16874158 66.91824778 -100.39018441 45.90345531 -94 28 C-87.60513486 12.75835251 -76.1777502 0.46287302 -60.8515625 -5.93359375 C-40.83066412 -13.42086123 -17.92337571 -12.12004111 0 0 Z M-49.875 27.9375 C-52.49471919 31.71297765 -54 34.38354105 -54 39 C-41.46 39 -28.92 39 -16 39 C-18.01895893 30.48735253 -18.01895893 30.48735253 -23 24 C-32.20931338 18.50983241 -42.72778337 19.84986013 -49.875 27.9375 Z " fill="#231F20" transform="translate(2116,1465)"/>
<path d="M0 0 C-3.61818332 9.6857897 -7.26837624 19.35722003 -11 29 C-14.68288555 29 -15.65224405 28.91565076 -18.6875 27.35546875 C-19.37996826 27.00935547 -20.07243652 26.66324219 -20.78588867 26.30664062 C-21.51654541 25.93732422 -22.24720215 25.56800781 -23 25.1875 C-35.32844982 19.21482434 -48.63619175 15.14203162 -62.375 19 C-63.674375 19.495 -63.674375 19.495 -65 20 C-65.68493373 22.85778033 -65.68493373 22.85778033 -66 26 C-63.28662738 30.07005893 -60.14049844 30.29463216 -55.625 31.375 C-54.78155029 31.58922607 -53.93810059 31.80345215 -53.0690918 32.02416992 C-48.67837188 33.13249518 -44.27574711 34.1690245 -39.85546875 35.15234375 C-26.97569331 38.07318411 -11.56606799 41.68579839 -3.2578125 52.88671875 C2.74133548 62.9660326 4.5254288 74.2556126 1.72265625 85.7265625 C-1.68686067 96.45271842 -7.85554967 103.00991244 -17.640625 108.42578125 C-39.86133969 118.83851151 -70.09512488 117.25758847 -93.02783203 109.73925781 C-99.26807089 107.40013386 -105.14985911 104.16722476 -111 101 C-110.4532325 94.07096458 -107.93348067 88.00312392 -105.4375 81.5625 C-105.01275391 80.44939453 -104.58800781 79.33628906 -104.15039062 78.18945312 C-103.10669884 75.45709149 -102.05641767 72.72746098 -101 70 C-96.40315593 70 -94.61982328 71.07432966 -90.625 73.25 C-83.63408104 76.92591519 -76.70301243 79.17016563 -69 81 C-68.24847656 81.19335938 -67.49695312 81.38671875 -66.72265625 81.5859375 C-62.48891986 82.22980559 -58.27642355 82.22520914 -54 82.25 C-53.11054688 82.270625 -52.22109375 82.29125 -51.3046875 82.3125 C-46.36063153 82.34201675 -43.02520783 82.21367399 -39 79 C-37.74843946 77.95137906 -37.74843946 77.95137906 -37.6875 75.625 C-37.73504874 72.96470339 -37.73504874 72.96470339 -39.47900391 71.47558594 C-43.03461885 69.39441833 -46.6511016 68.65988292 -50.6484375 67.765625 C-52.39462812 67.35197123 -54.14071858 66.93789441 -55.88671875 66.5234375 C-58.61428808 65.88766996 -61.34288901 65.25730878 -64.07373047 64.63574219 C-95.24122058 57.49449742 -95.24122058 57.49449742 -104 44 C-108.62683564 35.86750733 -108.09170072 24.82240385 -106.4140625 15.875 C-103.0232256 4.92477441 -93.95383406 -3.69938105 -84 -9 C-56.96764945 -20.3862653 -24.06313161 -16.82942947 0 0 Z " fill="#231F20" transform="translate(3685,1470)"/>
<path d="M0 0 C14.85 0 29.7 0 45 0 C45 59.4 45 118.8 45 180 C30.15 180 15.3 180 0 180 C0 120.6 0 61.2 0 0 Z " fill="#231F20" transform="translate(2263,1403)"/>
<path d="M0 0 C0 13.53 0 27.06 0 41 C-3.68102681 40.26379464 -7.19959736 39.41767149 -10.8125 38.4375 C-20.01583608 36.14229149 -28.82597163 36.16892787 -37.3125 40.8125 C-42.93427175 45.38836073 -45.45201335 50.01275682 -47 57 C-47.45862712 62.2502468 -47.48947251 67.48828462 -47.51171875 72.75390625 C-47.52859181 74.2656345 -47.54674553 75.77734894 -47.56611633 77.28904724 C-47.61333787 81.23938684 -47.64332627 85.18967045 -47.66955566 89.14019775 C-47.70478187 93.89537552 -47.76171423 98.65033839 -47.81494904 103.4053421 C-47.89313599 110.60353293 -47.94398766 117.80144881 -48 125 C-62.85 125 -77.7 125 -93 125 C-93.02505615 121.78185547 -93.0501123 118.56371094 -93.07592773 115.24804688 C-93.15975695 104.56316028 -93.24839456 93.87831736 -93.33933926 83.19348907 C-93.3942825 76.72129372 -93.4476535 70.24909368 -93.49731445 63.77685547 C-93.54538392 57.51982598 -93.59773606 51.26284509 -93.65294075 45.00587463 C-93.67317327 42.62994106 -93.69191518 40.25399426 -93.70907402 37.8780365 C-93.73354737 34.52606478 -93.76353426 31.17418117 -93.79467773 27.82226562 C-93.8004332 26.86055954 -93.80618866 25.89885345 -93.81211853 24.90800476 C-93.89920405 16.55303571 -94.47627136 8.37965824 -95 0 C-80.81 0 -66.62 0 -52 0 C-51.34 5.28 -50.68 10.56 -50 16 C-48.68 14.35 -47.36 12.7 -46 11 C-34.63234594 -1.1010511 -15.72797436 -7.86398718 0 0 Z " fill="#231F20" transform="translate(2251,1458)"/>
<path d="M0 0 C0 13.53 0 27.06 0 41 C-2.63961377 40.47207725 -5.2791063 39.92339746 -7.875 39.2109375 C-18.80638421 36.28679222 -28.87713391 35.84034803 -38.97265625 41.55078125 C-44.13195724 45.23883649 -45.53810803 50.08058752 -47 56 C-47.19075015 58.37093551 -47.29266286 60.75020985 -47.31884766 63.12866211 C-47.33391609 64.13968994 -47.33391609 64.13968994 -47.34928894 65.17114258 C-47.37989249 67.37320187 -47.39709154 69.57514092 -47.4140625 71.77734375 C-47.4327926 73.3143465 -47.45236737 74.85133917 -47.4727478 76.38832092 C-47.52388063 80.41429679 -47.56360663 84.44030592 -47.60089111 88.46643066 C-47.64812246 93.30746401 -47.70963884 98.14833471 -47.76873779 102.98923492 C-47.85672007 110.32609028 -47.92664848 117.66291811 -48 125 C-62.85 125 -77.7 125 -93 125 C-93.02505615 121.88844482 -93.0501123 118.77688965 -93.07592773 115.57104492 C-93.15988698 105.22145601 -93.24850573 94.87191062 -93.33933926 84.52237988 C-93.39420184 78.25541431 -93.44755753 71.98844389 -93.49731445 65.72143555 C-93.54550593 59.65890814 -93.59785804 53.59642891 -93.65294075 47.53396034 C-93.6731194 45.23586561 -93.69186831 42.93775781 -93.70907402 40.6396389 C-93.7336713 37.38886226 -93.76363473 34.13817187 -93.79467773 30.88745117 C-93.8004332 29.96458313 -93.80618866 29.04171509 -93.81211853 28.09088135 C-93.91233955 18.69191327 -94.50430493 9.41820629 -95 0 C-81.14 0 -67.28 0 -53 0 C-50.75 11.25 -50.75 11.25 -50 17 C-49.64808594 16.49210937 -49.29617188 15.98421875 -48.93359375 15.4609375 C-42.39000294 6.33749757 -35.00524745 0.15182165 -23.875 -2.3125 C-15.91736991 -3.57013944 -7.26733529 -3.63366765 0 0 Z " fill="#231F20" transform="translate(1787,1458)"/>
</svg>
